{
    "asset" : {
        "generator" : "Khronos glTF Blender I/O v1.6.16",
        "version" : "2.0"
    },
    "scene" : 0,
    "scenes" : [
        {
            "name" : "Scene",
            "nodes" : [
                0,
                1
            ]
        }
    ],
    "nodes" : [
        {
            "name" : "Camera",
            "rotation" : [
                0.483536034822464,
                0.33687159419059753,
                -0.20870360732078552,
                0.7804827094078064
            ],
            "translation" : [
                7.358891487121582,
                4.958309173583984,
                6.925790786743164
            ]
        },
        {
            "mesh" : 0,
            "name" : "itesa",
            "rotation" : [
                0.9990257620811462,
                -0.0011606522602960467,
                -0.04411504045128822,
                8.366486144950613e-05
            ],
            "translation" : [
                -91.12892150878906,
                -34.454132080078125,
                1.5051358938217163
            ]
        }
    ],
    "materials" : [
        {
            "doubleSided" : true,
            "name" : "mat_1",
            "pbrMetallicRoughness" : {
                "baseColorFactor" : [
                    0.5254899859428406,
                    0.1450980007648468,
                    0.8588240146636963,
                    1
                ],
                "metallicFactor" : 0,
                "roughnessFactor" : 0.08712907135486603
            }
        }
    ],
    "meshes" : [
        {
            "name" : "itesa",
            "primitives" : [
                {
                    "attributes" : {
                        "POSITION" : 0,
                        "NORMAL" : 1
                    },
                    "indices" : 2,
                    "material" : 0
                }
            ]
        }
    ],
    "accessors" : [
        {
            "bufferView" : 0,
            "componentType" : 5126,
            "count" : 2124,
            "max" : [
                133.33999633789062,
                -8.510000228881836,
                36
            ],
            "min" : [
                -2.9000000953674316,
                -50.375083923339844,
                -3
            ],
            "type" : "VEC3"
        },
        {
            "bufferView" : 1,
            "componentType" : 5126,
            "count" : 2124,
            "type" : "VEC3"
        },
        {
            "bufferView" : 2,
            "componentType" : 5123,
            "count" : 6900,
            "type" : "SCALAR"
        }
    ],
    "bufferViews" : [
        {
            "buffer" : 0,
            "byteLength" : 25488,
            "byteOffset" : 0
        },
        {
            "buffer" : 0,
            "byteLength" : 25488,
            "byteOffset" : 25488
        },
        {
            "buffer" : 0,
            "byteLength" : 13800,
            "byteOffset" : 50976
        }
    ],
    "buffers" : [
        {
            "byteLength" : 64776,
            "uri" : "data:application/octet-stream;base64,"
        }
    ]
}
